<?xml version="1.0" standalone="no"?>
<!DOCTYPE svg PUBLIC "-//W3C//DTD SVG 20010904//EN"
 "http://www.w3.org/TR/2001/REC-SVG-20010904/DTD/svg10.dtd">
<svg version="1.0" xmlns="http://www.w3.org/2000/svg"
 width="545.000000pt" height="545.000000pt" viewBox="0 0 545.000000 545.000000"
 preserveAspectRatio="xMidYMid meet">
<metadata>
Created by potrace 1.14, written by Peter Selinger 2001-2017
</metadata>
<g transform="translate(0.000000,545.000000) scale(0.100000,-0.100000)"
fill="#000000" stroke="none">
<path d="M1265 5053 c-274 -25 -600 -167 -790 -344 -22 -21 -49 -46 -60 -56
-19 -17 -77 -82 -122 -136 -39 -46 -119 -180 -156 -259 -87 -186 -135 -405
-131 -603 1 -91 12 -213 18 -224 2 -3 7 -22 10 -41 16 -100 66 -237 136 -375
88 -174 138 -238 205 -266 23 -9 181 -13 643 -14 542 -1 613 1 616 15 3 8 8
40 12 70 4 30 8 64 10 75 2 11 6 38 9 60 3 22 12 78 21 125 8 47 17 99 20 115
32 185 116 512 142 551 4 6 17 16 29 23 62 32 136 -67 201 -269 27 -83 76
-267 88 -324 2 -10 14 -58 28 -105 14 -47 50 -185 80 -306 66 -259 103 -379
152 -484 38 -81 45 -81 57 -1 8 50 25 139 36 185 6 22 22 94 36 160 32 146 30
136 50 210 9 33 18 67 20 75 13 62 44 161 82 264 l26 68 45 -6 c100 -14 136
-61 183 -242 38 -148 52 -192 91 -274 l31 -65 13 40 c91 287 313 927 342 984
24 48 48 81 67 93 39 23 38 23 74 -12 46 -46 86 -165 176 -525 88 -349 115
-431 155 -474 l25 -27 583 1 c572 0 584 1 594 20 6 11 46 75 89 142 43 67 94
155 113 195 34 71 89 246 100 318 3 19 8 46 12 60 12 53 11 327 -2 414 -52
338 -245 656 -539 887 -351 277 -836 357 -1269 210 -234 -80 -379 -181 -616
-431 -152 -161 -256 -246 -288 -236 -10 4 -99 86 -197 183 -99 97 -214 205
-256 239 -75 61 -183 134 -196 134 -3 0 -14 6 -22 13 -18 15 -207 99 -262 116
-39 12 -44 14 -159 37 -72 15 -272 25 -355 17z"/>
<path d="M3496 3247 c-35 -75 -148 -418 -231 -697 -37 -124 -76 -239 -86 -257
-11 -17 -35 -40 -53 -51 l-34 -20 -42 20 c-23 12 -50 34 -59 49 -10 16 -44
108 -76 206 -65 201 -77 222 -93 172 -15 -45 -116 -388 -187 -629 -31 -107
-66 -220 -77 -251 -22 -62 -59 -109 -87 -109 -67 0 -148 170 -236 500 -86 320
-206 733 -258 890 -58 176 -53 178 -87 -25 -27 -153 -25 -143 -49 -260 -34
-161 -57 -222 -88 -230 -67 -16 -186 -20 -660 -19 l-513 2 21 -27 c130 -168
1492 -1531 1914 -1916 75 -68 216 -185 224 -185 13 0 193 173 427 410 566 574
703 710 764 760 83 68 491 469 695 681 132 138 205 222 225 258 l11 21 -559 0
-558 0 -104 368 c-57 202 -107 374 -111 382 -5 10 -15 -2 -33 -43z"/>
</g>
</svg>
